<svg width="70" height="71" viewBox="0 0 70 71" fill="none" xmlns="http://www.w3.org/2000/svg">
<rect y="0.280029" width="70" height="70" rx="14" fill="#F2F7FC"/>
<path d="M44.2548 28.4631C44.2548 30.2519 43.0623 31.6432 41.2735 32.2394L35.7083 33.8295L34.9133 34.0282V34.8232L33.9196 41.7796C33.7208 43.5684 32.3295 44.9597 30.5407 45.1585C30.342 45.1585 30.1432 45.1585 29.9445 45.1585C28.3544 45.1585 27.1619 44.3635 26.3669 42.9722C26.3669 42.9722 26.3669 42.9722 26.3669 42.7734L17.4229 23.4942C16.6279 22.1029 17.0254 20.5129 18.0192 19.1216C19.013 17.9291 20.8018 17.5316 22.193 17.9291L41.671 24.488C42.466 24.6868 43.261 25.283 43.6585 25.8793C44.056 26.6743 44.2548 27.4693 44.2548 28.4631Z" fill="#0041D7"/>
<path d="M49.0249 38.4008C49.0249 39.3946 48.0311 40.3884 47.0373 40.3884H41.0747C40.0809 40.3884 39.0872 39.3946 39.0872 38.4008C39.0872 37.407 40.0809 36.4133 41.0747 36.4133H47.0373C48.0311 36.4133 49.0249 37.407 49.0249 38.4008Z" fill="#0036B3"/>
<path d="M51.0124 44.3635C51.0124 45.3572 50.0187 46.351 49.0249 46.351H41.0747C40.0809 46.351 39.0872 45.3572 39.0872 44.3635C39.0872 43.3697 40.0809 42.3759 41.0747 42.3759H49.0249C50.0187 42.3759 51.0124 43.3697 51.0124 44.3635Z" fill="#0041D7"/>
<path d="M53 50.3261C53 51.3199 52.0062 52.3137 51.0124 52.3137H41.0747C40.0809 52.3137 39.0872 51.3199 39.0872 50.3261C39.0872 49.3323 40.0809 48.3386 41.0747 48.3386H51.0124C52.0062 48.3386 53 49.3323 53 50.3261Z" fill="#0036B3"/>
<path opacity="0.1" d="M26.5657 42.9721L34.9134 34.6244L33.9196 41.5808C33.7208 43.3696 32.3296 44.7609 30.5408 44.9597C30.342 44.9597 30.1433 44.9597 29.9445 44.9597C28.5532 45.1584 27.1619 44.3634 26.5657 42.9721ZM41.4723 32.0406L35.9071 33.6306L43.6586 25.8792C44.0561 26.4755 44.4536 27.4692 44.4536 28.2643C44.2548 30.0531 43.0623 31.6431 41.4723 32.0406ZM41.0748 36.4132H47.0374C48.0312 36.4132 49.0249 37.407 49.0249 38.4008C49.0249 39.3945 48.0312 40.3883 47.0374 40.3883H41.0748C40.081 40.3883 39.0872 39.3945 39.0872 38.4008C39.0872 37.407 40.081 36.4132 41.0748 36.4132ZM49.0249 42.3758C50.0187 42.3758 51.0125 43.3696 51.0125 44.3634C51.0125 45.3572 50.0187 46.3509 49.0249 46.3509H41.0748C40.081 46.3509 39.0872 45.3572 39.0872 44.3634C39.0872 43.3696 40.081 42.3758 41.0748 42.3758H49.0249ZM53 50.326C53 51.3198 52.0063 52.3136 51.0125 52.3136H41.0748C40.081 52.3136 39.0872 51.3198 39.0872 50.326C39.0872 49.3323 40.081 48.3385 41.0748 48.3385H51.0125C52.0063 48.3385 53 49.3323 53 50.326Z" fill="black"/>
</svg>
