<svg width="343" height="161" viewBox="0 0 343 161" fill="none" xmlns="http://www.w3.org/2000/svg">
<path d="M-0.999136 160.521V144.928L13.7239 114.802L24.5805 106.233L32.0109 86.953L48.1031 83.2041L62.0997 81.8694L72.7353 85.0827L87.9345 90.2333L94.4485 71.1578L103.496 57.7688L113.628 57.7692L119.419 36.3469L124.311 17.0668L131.554 12.0733L135.342 25.9961V36.3469L149.817 32.598L171.892 19.7446L189.263 17.0668L203.738 15.4601L218.937 19.7446L242.46 17.0668L264.173 19.7446H280.82L297.828 1H317.008H342.501C342.501 76.5625 342.5 85.4375 342.5 161C207.769 161 133.731 161 -1 161L-0.999136 160.521Z" fill="url(#paint0_linear_512_11095)" fill-opacity="0.4" stroke="#9CCD96"/>
<defs>
<linearGradient id="paint0_linear_512_11095" x1="-103.727" y1="6.4337" x2="-102.482" y2="137.34" gradientUnits="userSpaceOnUse">
<stop stop-color="#9CCD96"/>
<stop offset="1" stop-color="#9CCD96" stop-opacity="0"/>
</linearGradient>
</defs>
</svg>
