<svg width="70" height="71" viewBox="0 0 70 71" fill="none" xmlns="http://www.w3.org/2000/svg">
<rect y="0.280029" width="70" height="70" rx="14" fill="#F2F7FC"/>
<path d="M36.5827 45.9933L31.2283 49.0846C28.8616 50.4511 26.0489 50.8214 23.4091 50.114C20.7693 49.4067 18.5187 47.6797 17.1522 45.3129C15.7858 42.9462 15.4155 40.1335 16.1228 37.4937C16.8301 34.854 18.5571 32.6033 20.9239 31.2368L26.2782 28.1455C26.7516 27.8722 27.3141 27.7981 27.8421 27.9396C28.37 28.0811 28.8202 28.4265 29.0935 28.8998C29.3667 29.3732 29.4408 29.9357 29.2993 30.4637C29.1579 30.9916 28.8125 31.4418 28.3391 31.7151L22.9848 34.8064C21.5647 35.6263 20.5285 36.9767 20.1041 38.5605C19.6797 40.1444 19.9019 41.832 20.7218 43.252C21.5416 44.6721 22.892 45.7083 24.4759 46.1327C26.0598 46.5571 27.7474 46.3349 29.1674 45.5151L34.5218 42.4237C34.9951 42.1504 35.5577 42.0764 36.0856 42.2178C36.6136 42.3593 37.0637 42.7047 37.337 43.1781C37.6103 43.6514 37.6843 44.2139 37.5429 44.7419C37.4014 45.2699 37.056 45.72 36.5827 45.9933ZM49.0761 38.7802L43.7218 41.8715C43.2484 42.1448 42.6859 42.2189 42.1579 42.0774C41.63 41.9359 41.1798 41.5905 40.9066 41.1172C40.6333 40.6438 40.5592 40.0813 40.7007 39.5533C40.8421 39.0254 41.1875 38.5752 41.6609 38.302L47.0152 35.2106C48.4353 34.3908 49.4715 33.0404 49.8959 31.4565C50.3203 29.8726 50.0981 28.185 49.2782 26.765C48.4584 25.3449 47.108 24.3087 45.5241 23.8843C43.9402 23.4599 42.2526 23.6821 40.8326 24.502L35.4782 27.5933C35.0049 27.8666 34.4423 27.9406 33.9144 27.7992C33.3864 27.6577 32.9363 27.3123 32.663 26.8389C32.3897 26.3656 32.3157 25.8031 32.4571 25.2751C32.5986 24.7472 32.944 24.297 33.4173 24.0237L38.7717 20.9324C41.1384 19.5659 43.9511 19.1957 46.5909 19.903C49.2307 20.6103 51.4813 22.3373 52.8478 24.7041C54.2142 27.0708 54.5845 29.8835 53.8772 32.5233C53.1699 35.1631 51.4429 37.4137 49.0761 38.7802Z" fill="#0041D7"/>
<path d="M41.3847 33.7019L30.676 39.8846C30.2026 40.1579 29.6401 40.2319 29.1121 40.0905C28.5842 39.949 28.1341 39.6036 27.8608 39.1302C27.5875 38.6569 27.5134 38.0944 27.6549 37.5664C27.7963 37.0384 28.1417 36.5883 28.6151 36.315L39.3238 30.1324C39.7971 29.8591 40.3597 29.785 40.8876 29.9265C41.4156 30.0679 41.8657 30.4133 42.139 30.8867C42.4123 31.36 42.4863 31.9226 42.3449 32.4505C42.2034 32.9785 41.858 33.4286 41.3847 33.7019Z" fill="#0036B3"/>
</svg>
