<svg width="12" height="13" viewBox="0 0 12 13" fill="none" xmlns="http://www.w3.org/2000/svg">
<path d="M6.08003 5.935C6.03003 5.93 5.97003 5.93 5.91503 5.935C4.72503 5.895 3.78003 4.92 3.78003 3.72C3.78003 2.495 4.77003 1.5 6.00003 1.5C7.22503 1.5 8.22003 2.495 8.22003 3.72C8.21503 4.92 7.27003 5.895 6.08003 5.935Z" stroke="#7B7B7B" stroke-linecap="round" stroke-linejoin="round"/>
<path d="M3.57999 7.78C2.36999 8.59 2.36999 9.91 3.57999 10.715C4.95499 11.635 7.20999 11.635 8.58499 10.715C9.79499 9.905 9.79499 8.585 8.58499 7.78C7.21499 6.865 4.95999 6.865 3.57999 7.78Z" stroke="#7B7B7B" stroke-linecap="round" stroke-linejoin="round"/>
</svg>
