<svg width="70" height="71" viewBox="0 0 70 71" fill="none" xmlns="http://www.w3.org/2000/svg">
<rect y="0.280029" width="70" height="70" rx="14" fill="#F2F7FC"/>
<path d="M34.6068 16.78C34.2063 16.7858 33.8238 16.9475 33.5406 17.2308L15.4508 35.3207C15.1622 35.6091 15.0001 36.0004 15 36.4084V42.9348C15 43.3428 15.1621 43.7341 15.4506 44.0227C15.7391 44.3112 16.1305 44.4733 16.5385 44.4733H23.0649C23.4729 44.4732 23.8642 44.311 24.1526 44.0225L42.2425 25.9342C42.5309 25.6457 42.6929 25.2544 42.6929 24.8465C42.6929 24.4385 42.5309 24.0472 42.2425 23.7587L35.7161 17.2324C35.5709 17.0871 35.3981 16.9723 35.2078 16.8949C35.0176 16.8175 34.8137 16.779 34.6084 16.7816L34.6068 16.78Z" fill="#0041D7"/>
<mask id="mask0_550_12051" style="mask-type:alpha" maskUnits="userSpaceOnUse" x="15" y="16" width="28" height="29">
<path d="M34.6068 16.78C34.2063 16.7858 33.8238 16.9475 33.5406 17.2308L15.4508 35.3207C15.1622 35.6091 15.0001 36.0004 15 36.4084V42.9348C15 43.3428 15.1621 43.7341 15.4506 44.0227C15.7391 44.3112 16.1305 44.4733 16.5385 44.4733H23.0649C23.4729 44.4732 23.8642 44.311 24.1526 44.0225L42.2425 25.9342C42.5309 25.6457 42.6929 25.2544 42.6929 24.8465C42.6929 24.4385 42.5309 24.0472 42.2425 23.7587L35.7161 17.2324C35.5709 17.0871 35.3981 16.9723 35.2078 16.8949C35.0176 16.8175 34.8137 16.779 34.6084 16.7816L34.6068 16.78Z" fill="#0041D7"/>
</mask>
<g mask="url(#mask0_550_12051)">
<path opacity="0.4" d="M24.848 42.0897C28.0377 33.3526 34.7291 18.398 37.6762 12.0128L45.4771 22.414C37.2717 32.613 21.6583 50.8267 24.848 42.0897Z" fill="#0036B3"/>
</g>
<path d="M37.5178 38.3193C37.1177 38.3316 36.7377 38.4993 36.4593 38.7855L29.3944 45.8426C28.9157 46.3267 28.5523 46.9126 28.3313 47.5565H16.5617C16.1538 47.5565 15.7627 47.7185 15.4743 48.0069C15.1859 48.2953 15.0239 48.6864 15.0239 49.0943C15.0239 49.5021 15.1859 49.8932 15.4743 50.1816C15.7627 50.47 16.1538 50.632 16.5617 50.632H28.3251C28.5452 51.2643 28.8929 51.8628 29.3944 52.3644C30.264 53.2231 31.437 53.7047 32.6591 53.7047C33.8813 53.7047 35.0542 53.2231 35.9239 52.3644L40.2779 48.0135C40.4809 48.4889 40.7548 48.8673 41.1763 49.2904C42.0452 50.1494 43.2178 50.6311 44.4395 50.6311C45.6613 50.6311 46.8338 50.1494 47.7027 49.2904L49.452 47.5427H53.4398C55.5199 47.5719 55.5199 44.4395 53.4398 44.4687H48.8151C48.4073 44.4684 48.016 44.63 47.7273 44.918L45.5273 47.1165C45.3869 47.2637 45.2181 47.3809 45.0311 47.4609C44.8442 47.5409 44.6429 47.5822 44.4395 47.5822C44.2361 47.5822 44.0349 47.5409 43.8479 47.4609C43.6609 47.3809 43.4922 47.2637 43.3518 47.1165C43.2045 46.9764 43.0872 46.8078 43.007 46.6209C42.9269 46.4341 42.8855 46.2329 42.8855 46.0296C42.8855 45.8262 42.9269 45.625 43.007 45.4382C43.0872 45.2513 43.2045 45.0827 43.3518 44.9426L44.2626 44.0333C45.6519 42.5841 43.538 40.4717 42.0871 41.8594L41.1763 42.7687L33.7484 50.1905C33.6077 50.3375 33.4386 50.4546 33.2514 50.5345C33.0642 50.6145 32.8627 50.6557 32.6591 50.6557C32.4556 50.6557 32.2541 50.6145 32.0669 50.5345C31.8797 50.4546 31.7106 50.3375 31.5699 50.1905C31.4225 50.0503 31.3052 49.8817 31.2251 49.6949C31.1449 49.508 31.1036 49.3068 31.1036 49.1035C31.1036 48.9002 31.1449 48.699 31.2251 48.5121C31.3052 48.3253 31.4225 48.1567 31.5699 48.0165L38.6347 40.9594C39.6409 39.9809 38.9209 38.2793 37.5178 38.3193Z" fill="#0036B3"/>
</svg>
