<svg width="24" height="24" viewBox="0 0 24 24" fill="none" xmlns="http://www.w3.org/2000/svg">
<path d="M12 22.0001C17.5234 22.0001 22 17.5236 22 12.0001C22 6.47668 17.5234 2.00012 12 2.00012C6.47656 2.00012 2 6.47668 2 12.0001C2 17.5236 6.47656 22.0001 12 22.0001ZM16.4141 10.1642L11.4141 15.1642C11.0469 15.5314 10.4531 15.5314 10.0898 15.1642L7.58984 12.6642C7.22266 12.297 7.22266 11.7032 7.58984 11.34C7.95703 10.9767 8.55078 10.9728 8.91406 11.34L10.75 13.1759L15.0859 8.83606C15.4531 8.46887 16.0469 8.46887 16.4102 8.83606C16.7734 9.20325 16.7773 9.797 16.4102 10.1603L16.4141 10.1642Z" fill="#1ED030"/>
</svg>
