<svg width="20" height="20" viewBox="0 0 20 20" fill="none" xmlns="http://www.w3.org/2000/svg">
<path d="M4.16663 8.33335H5.83329C7.49996 8.33335 8.33329 7.50002 8.33329 5.83335V4.16669C8.33329 2.50002 7.49996 1.66669 5.83329 1.66669H4.16663C2.49996 1.66669 1.66663 2.50002 1.66663 4.16669V5.83335C1.66663 7.50002 2.49996 8.33335 4.16663 8.33335Z" stroke="black" stroke-miterlimit="10" stroke-linecap="round" stroke-linejoin="round"/>
<path d="M14.1666 8.33335H15.8333C17.5 8.33335 18.3333 7.50002 18.3333 5.83335V4.16669C18.3333 2.50002 17.5 1.66669 15.8333 1.66669H14.1666C12.5 1.66669 11.6666 2.50002 11.6666 4.16669V5.83335C11.6666 7.50002 12.5 8.33335 14.1666 8.33335Z" stroke="black" stroke-miterlimit="10" stroke-linecap="round" stroke-linejoin="round"/>
<path d="M14.1666 18.3334H15.8333C17.5 18.3334 18.3333 17.5 18.3333 15.8334V14.1667C18.3333 12.5 17.5 11.6667 15.8333 11.6667H14.1666C12.5 11.6667 11.6666 12.5 11.6666 14.1667V15.8334C11.6666 17.5 12.5 18.3334 14.1666 18.3334Z" stroke="black" stroke-miterlimit="10" stroke-linecap="round" stroke-linejoin="round"/>
<path d="M4.16663 18.3334H5.83329C7.49996 18.3334 8.33329 17.5 8.33329 15.8334V14.1667C8.33329 12.5 7.49996 11.6667 5.83329 11.6667H4.16663C2.49996 11.6667 1.66663 12.5 1.66663 14.1667V15.8334C1.66663 17.5 2.49996 18.3334 4.16663 18.3334Z" stroke="black" stroke-miterlimit="10" stroke-linecap="round" stroke-linejoin="round"/>
</svg>
