<svg width="17" height="17" viewBox="0 0 17 17" fill="none" xmlns="http://www.w3.org/2000/svg">
<path d="M6.41643 8.45707L7.97103 9.96456L10.9794 6.8428" stroke="#7B7B7B" stroke-width="0.95107" stroke-linecap="round" stroke-linejoin="round"/>
<path d="M7.8132 2.37663C8.24409 1.99496 8.96046 1.98245 9.41075 2.34874L10.4274 3.19343C10.6205 3.35494 10.9778 3.48187 11.2314 3.47744L12.3091 3.45863C12.9811 3.4469 13.5423 3.98881 13.554 4.6608L13.5728 5.73851C13.5771 5.98575 13.7166 6.34478 13.8847 6.53209L14.7644 7.51868C15.146 7.94958 15.1586 8.66594 14.7923 9.11624L13.9476 10.1329C13.7861 10.326 13.6591 10.6833 13.6636 10.9369L13.6824 12.0146C13.6941 12.6866 13.1522 13.2478 12.4802 13.2595L11.4025 13.2783C11.1553 13.2826 10.7962 13.4221 10.6089 13.5902L9.62233 14.4699C9.19143 14.8515 8.47507 14.864 8.02477 14.4978L7.00808 13.6531C6.81502 13.4916 6.45768 13.3646 6.2041 13.3691L5.10737 13.3882C4.43538 13.3999 3.87422 12.858 3.86249 12.186L3.84357 11.102C3.83925 10.8547 3.69992 10.502 3.53812 10.3146L2.66469 9.32158C2.28936 8.89058 2.27697 8.18055 2.63702 7.73671L3.47526 6.71379C3.63043 6.52084 3.75736 6.1635 3.75305 5.91626L3.73402 4.82587C3.72229 4.15388 4.2642 3.59271 4.93618 3.58098L6.03292 3.56184C6.28016 3.55753 6.63919 3.41809 6.82649 3.24994L7.8132 2.37663Z" stroke="#7B7B7B" stroke-width="0.95107" stroke-linecap="round" stroke-linejoin="round"/>
</svg>
