<svg width="24" height="25" viewBox="0 0 24 25" fill="none" xmlns="http://www.w3.org/2000/svg">
<path d="M9.95272 20.6778C9.43072 20.6778 8.93632 20.4342 8.61952 20.0142L4.33192 14.349C4.19936 14.1741 4.10258 13.9747 4.04712 13.7623C3.99166 13.5499 3.9786 13.3287 4.00869 13.1113C4.03878 12.8938 4.11143 12.6845 4.22249 12.4951C4.33354 12.3058 4.48083 12.1402 4.65592 12.0078C4.83095 11.8749 5.03049 11.7778 5.24311 11.7221C5.45573 11.6665 5.67725 11.6533 5.89497 11.6834C6.11268 11.7135 6.32232 11.7863 6.51186 11.8975C6.7014 12.0088 6.86712 12.1564 6.99952 12.3318L9.82072 16.0566L16.9139 4.66623C17.1492 4.29015 17.524 4.02272 17.9561 3.92262C18.3883 3.82251 18.8425 3.89789 19.2191 4.13223C20.0027 4.61943 20.2439 5.65143 19.7543 6.43623L11.3735 19.8882C11.2305 20.1189 11.0333 20.3112 10.799 20.4483C10.5648 20.5855 10.3007 20.6635 10.0295 20.6754C10.0031 20.6778 9.97912 20.6778 9.95272 20.6778Z" fill="#0041D7"/>
</svg>
