<svg width="109" height="30" viewBox="0 0 109 30" fill="none" xmlns="http://www.w3.org/2000/svg">
<path d="M14.7822 21.2053H10.8376C10.5346 21.2053 10.244 21.0807 10.0297 20.8591C9.81543 20.6374 9.69505 20.3367 9.69505 20.0232C9.69505 19.7097 9.81543 19.4091 10.0297 19.1874C10.244 18.9657 10.5346 18.8412 10.8376 18.8412H14.7822C15.5624 18.8412 16.198 18.3147 16.198 17.6653C16.1817 17.4257 16.0962 17.1968 15.9524 17.0083C15.8087 16.8198 15.6134 16.6804 15.3921 16.6082L12.7822 15.5593C11.396 15.0082 10.5188 13.7258 10.5188 12.2979C10.5188 10.3455 12.1782 8.75785 14.2178 8.75785H16.9762C17.1263 8.75785 17.2749 8.78844 17.4135 8.84784C17.5521 8.90725 17.6781 8.99431 17.7842 9.10407C17.8903 9.21383 17.9744 9.34415 18.0318 9.48756C18.0893 9.63097 18.1188 9.78468 18.1188 9.93991C18.1188 10.0951 18.0893 10.2488 18.0318 10.3923C17.9744 10.5357 17.8903 10.666 17.7842 10.7758C17.6781 10.8855 17.5521 10.9726 17.4135 11.032C17.2749 11.0914 17.1263 11.122 16.9762 11.122H14.2178C13.4376 11.122 12.804 11.6505 12.804 12.2979C12.8202 12.5374 12.9058 12.7663 13.0496 12.9548C13.1933 13.1434 13.3885 13.2828 13.6099 13.355L16.2178 14.4039C17.5941 14.957 18.4832 16.2476 18.4832 17.6653C18.4832 19.6176 16.8317 21.2053 14.7822 21.2053ZM29 22.0247V7.97733C28.9953 5.86332 28.1809 3.83741 26.7353 2.34335C25.2896 0.849281 23.3305 0.00885651 21.2871 0.00615186H18.3683C18.0653 0.00615186 17.7747 0.130691 17.5604 0.352369C17.3461 0.574047 17.2257 0.87471 17.2257 1.18821C17.2257 1.50171 17.3461 1.80237 17.5604 2.02405C17.7747 2.24573 18.0653 2.37026 18.3683 2.37026H21.2871C22.7256 2.37188 24.1048 2.9638 25.122 4.01613C26.1392 5.06846 26.7113 6.49526 26.7129 7.98348V22.0268C26.7113 23.515 26.1392 24.9418 25.122 25.9941C24.1048 27.0465 22.7256 27.6384 21.2871 27.64H7.72277C6.28442 27.6378 4.90558 27.0457 3.88851 25.9935C2.87144 24.9413 2.29913 23.5148 2.29703 22.0268V7.97733C2.29913 6.48928 2.87144 5.06279 3.88851 4.01058C4.90558 2.95836 6.28442 2.36628 7.72277 2.36412H10.6337C10.9367 2.36412 11.2273 2.23958 11.4416 2.0179C11.6559 1.79622 11.7762 1.49556 11.7762 1.18206C11.7762 0.868558 11.6559 0.567896 11.4416 0.346217C11.2273 0.124539 10.9367 0 10.6337 0H7.72277C5.67662 -2.50514e-06 3.7141 0.840083 2.26614 2.33577C0.818185 3.83146 0.00314792 5.86048 0 7.97733V22.0206C0.00262371 24.1378 0.817427 26.1674 2.26544 27.6635C3.71346 29.1596 5.67628 30 7.72277 30H21.2871C23.3319 29.9973 25.2922 29.1557 26.7381 27.6599C28.1839 26.1641 28.9974 24.1361 29 22.0206V22.0247ZM8.68119 23.0081C8.17279 23.0075 7.68534 22.7985 7.32566 22.4268C6.96598 22.055 6.76342 21.551 6.76237 21.025V20.0273H6.75248V21.025C6.753 21.5538 6.95643 22.0609 7.31808 22.4346C7.67973 22.8084 8.17 23.0183 8.68119 23.0183H10.0673L8.68119 23.0081ZM4.46733 21.025V20.0273H4.45742V21.025C4.45847 22.1834 4.90388 23.294 5.69582 24.1129C6.48775 24.9318 7.56148 25.3921 8.68119 25.3927C8.12696 25.3921 7.57827 25.2786 7.06648 25.0585C6.55469 24.8385 6.08984 24.5163 5.6985 24.1103C5.30715 23.7042 4.99699 23.2224 4.78574 22.6923C4.57448 22.1622 4.46628 21.5943 4.46733 21.0209V21.025ZM22.2475 21.025V16.0612H22.2376V21.0209C22.2371 21.5467 22.035 22.0508 21.6756 22.4225C21.3163 22.7943 20.829 23.0034 20.3208 23.004C20.8301 23.004 21.3187 22.7954 21.6797 22.4238C22.0408 22.0522 22.2449 21.5478 22.2475 21.0209V21.025ZM24.5347 16.0653V21.025C24.5331 22.1805 24.0886 23.2882 23.2986 24.1051C22.5086 24.922 21.4377 25.3813 20.3208 25.3824C21.441 25.384 22.5161 24.9256 23.3099 24.1079C24.1037 23.2901 24.5513 22.1798 24.5545 21.0209V16.0612L24.5347 16.0653ZM20.3208 6.98785H8.68119C8.16982 6.9884 7.67955 7.1988 7.31796 7.57288C6.95637 7.94697 6.753 8.45417 6.75248 8.98321V14.0535H6.76237V8.97911C6.76342 8.45314 6.96598 7.94907 7.32566 7.57735C7.68534 7.20562 8.17279 6.99659 8.68119 6.99604H20.3208C20.829 6.99659 21.3163 7.20569 21.6756 7.57747C22.035 7.94925 22.2371 8.45333 22.2376 8.97911V9.93991H22.2475V8.97911C22.2475 8.45026 22.0446 7.94305 21.6833 7.56891C21.322 7.19476 20.832 6.9843 20.3208 6.98375V6.98785ZM20.3208 4.6135H8.68119C7.5613 4.61458 6.48758 5.07532 5.69569 5.89456C4.90381 6.7138 4.45847 7.82462 4.45742 8.98321V14.0535H4.46733V8.97911C4.46837 7.82324 4.91267 6.71502 5.7027 5.8977C6.49272 5.08038 7.56392 4.62073 8.68119 4.61965H20.3208C21.4381 4.62073 22.5093 5.08038 23.2993 5.8977C24.0893 6.71502 24.5336 7.82324 24.5347 8.97911V9.93991H24.5545V8.97911C24.5529 7.81891 24.106 6.70685 23.3121 5.88743C22.5182 5.06801 21.4422 4.60831 20.3208 4.6094V4.6135ZM10.0594 23.0142H8.67327C8.16208 23.0142 7.67181 22.8043 7.31016 22.4305C6.94851 22.0567 6.74508 21.5498 6.74455 21.0209V20.0232C6.74455 19.7097 6.62418 19.4091 6.4099 19.1874C6.19563 18.9657 5.90501 18.8412 5.60198 18.8412C5.29895 18.8412 5.00833 18.9657 4.79406 19.1874C4.57978 19.4091 4.45941 19.7097 4.45941 20.0232V21.0209C4.46098 22.1764 4.90551 23.2841 5.69547 24.101C6.48544 24.9179 7.55635 25.3772 8.67327 25.3783H10.0594C10.3624 25.3783 10.6531 25.2538 10.8673 25.0321C11.0816 24.8104 11.202 24.5098 11.202 24.1963C11.202 23.8828 11.0816 23.5821 10.8673 23.3604C10.6531 23.1387 10.3624 23.0142 10.0594 23.0142ZM23.3901 14.8812C23.0874 14.8812 22.7971 15.0054 22.5829 15.2267C22.3687 15.4479 22.248 15.748 22.2475 16.0612V21.0209C22.2475 21.5496 22.0445 22.0566 21.6832 22.4304C21.3219 22.8042 20.8318 23.0142 20.3208 23.0142H15.9644C15.6613 23.0142 15.3707 23.1387 15.1564 23.3604C14.9422 23.5821 14.8218 23.8828 14.8218 24.1963C14.8218 24.5098 14.9422 24.8104 15.1564 25.0321C15.3707 25.2538 15.6613 25.3783 15.9644 25.3783H20.3208C21.4377 25.3772 22.5086 24.9179 23.2986 24.101C24.0886 23.2841 24.5331 22.1764 24.5347 21.0209V16.0612C24.5344 15.906 24.5046 15.7523 24.4469 15.609C24.3893 15.4657 24.3049 15.3355 24.1986 15.226C24.0923 15.1164 23.9662 15.0295 23.8275 14.9704C23.6888 14.9112 23.5401 14.8809 23.3901 14.8812ZM20.3208 4.61965H8.68119C7.56392 4.62073 6.49272 5.08038 5.7027 5.8977C4.91267 6.71502 4.46837 7.82324 4.46733 8.97911V14.0494C4.46733 14.3629 4.58771 14.6636 4.80198 14.8853C5.01625 15.107 5.30687 15.2315 5.6099 15.2315C5.91293 15.2315 6.20355 15.107 6.41782 14.8853C6.6321 14.6636 6.75248 14.3629 6.75248 14.0494V8.97911C6.753 8.45007 6.95637 7.94286 7.31796 7.56878C7.67955 7.1947 8.16982 6.9843 8.68119 6.98375H20.3208C20.832 6.9843 21.322 7.19476 21.6833 7.56891C22.0446 7.94305 22.2475 8.45026 22.2475 8.97911V9.93991C22.2598 10.2452 22.3857 10.5337 22.5988 10.7452C22.8119 10.9567 23.0958 11.0748 23.3911 11.0748C23.6864 11.0748 23.9703 10.9567 24.1834 10.7452C24.3965 10.5337 24.5224 10.2452 24.5347 9.93991V8.97911C24.5336 7.82324 24.0893 6.71502 23.2993 5.8977C22.5093 5.08038 21.4381 4.62073 20.3208 4.61965Z" fill="#0041D7"/>
<path d="M41.3361 20.741C40.6704 20.4804 40.0902 20.0401 39.66 19.4691C39.2337 18.8827 39.0027 18.1769 39 17.4519H42.126C42.1436 17.8387 42.3096 18.204 42.5895 18.4716C42.876 18.7155 43.2445 18.8415 43.6203 18.8239C43.9882 18.8447 44.3521 18.7387 44.6512 18.5235C44.7745 18.4236 44.8724 18.2959 44.9368 18.1509C45.0013 18.0059 45.0305 17.8477 45.022 17.6892C45.0263 17.5515 45.0018 17.4144 44.9501 17.2867C44.8984 17.159 44.8206 17.0435 44.7217 16.9476C44.5048 16.7444 44.2537 16.5812 43.98 16.4655C43.5729 16.3005 43.157 16.1581 42.7341 16.0391C42.0813 15.8468 41.4441 15.6051 40.8281 15.316C40.3255 15.0675 39.8895 14.7026 39.5562 14.2517C39.1766 13.7105 38.9887 13.0579 39.0222 12.3977C38.9998 11.8927 39.0989 11.3897 39.3112 10.9309C39.5235 10.4721 39.8428 10.071 40.2422 9.76118C41.1617 9.08968 42.2828 8.75216 43.4201 8.80448C44.5693 8.749 45.7032 9.08642 46.6351 9.76118C47.0376 10.0777 47.3638 10.4806 47.5897 10.9402C47.8157 11.3997 47.9355 11.9042 47.9403 12.4162H44.7624C44.7589 12.2414 44.7187 12.0693 44.6447 11.9109C44.5706 11.7525 44.4642 11.6114 44.3323 11.4966C44.0474 11.2615 43.6852 11.1412 43.3163 11.1592C43.0052 11.145 42.7 11.2467 42.4597 11.4447C42.3477 11.5476 42.2603 11.6743 42.2038 11.8155C42.1473 11.9567 42.1233 12.1087 42.1334 12.2605C42.131 12.448 42.1811 12.6325 42.278 12.7931C42.375 12.9536 42.515 13.0838 42.6822 13.169C43.2285 13.4627 43.8039 13.6988 44.399 13.8735C45.0467 14.081 45.6808 14.3287 46.2976 14.6151C46.7944 14.8627 47.2272 15.2219 47.5621 15.6645C47.9346 16.177 48.1228 16.8004 48.0961 17.4333C48.1026 18.095 47.9199 18.7447 47.5695 19.3059C47.199 19.8874 46.6721 20.3526 46.0492 20.6483C45.3135 20.9945 44.5073 21.1646 43.6945 21.1452C42.8895 21.1662 42.0882 21.0289 41.3361 20.741Z" fill="black"/>
<path d="M49.9343 13.6473C50.3229 12.9209 50.9142 12.3231 51.6364 11.9267C52.4044 11.5161 53.2649 11.3093 54.1357 11.326C55.224 11.2802 56.295 11.6101 57.1689 12.2604C58.0013 12.9284 58.5659 13.8733 58.7597 14.9229H55.6337C55.5436 14.5906 55.3426 14.2991 55.0641 14.0967C54.7855 13.8944 54.4462 13.7934 54.1023 13.8104C53.8527 13.803 53.6051 13.8565 53.3809 13.9663C53.1566 14.0762 52.9626 14.239 52.8156 14.4408C52.4998 14.9862 52.3335 15.6053 52.3335 16.2355C52.3335 16.8658 52.4998 17.4849 52.8156 18.0303C52.963 18.2314 53.1572 18.3936 53.3814 18.5028C53.6056 18.6119 53.853 18.6649 54.1023 18.657C54.446 18.6734 54.7851 18.5721 55.0635 18.3698C55.3419 18.1676 55.543 17.8765 55.6337 17.5445H58.7597C58.5546 18.5864 57.9887 19.5226 57.1615 20.1884C56.3001 20.8466 55.2378 21.1872 54.1542 21.1525C53.2834 21.1692 52.423 20.9624 51.6549 20.5518C50.9336 20.1544 50.3425 19.5569 49.9529 18.8312C49.5528 18.0192 49.3447 17.126 49.3447 16.2207C49.3447 15.3154 49.5528 14.4223 49.9529 13.6102L49.9343 13.6473Z" fill="black"/>
<path d="M60.2804 13.6472C60.6154 12.9422 61.1423 12.3458 61.8007 11.9266C62.4444 11.5254 63.1894 11.317 63.9478 11.3259C64.5649 11.3121 65.1757 11.4537 65.724 11.7375C66.2068 11.9864 66.614 12.3604 66.9031 12.8203V11.4631H69.84V21.0523H66.9031V19.6951C66.6016 20.1569 66.1867 20.5335 65.698 20.789C65.1483 21.0725 64.5364 21.214 63.9181 21.2006C63.1642 21.2077 62.4247 20.9951 61.7896 20.5888C61.1298 20.1648 60.6028 19.5633 60.2693 18.8534C59.8826 18.0437 59.6908 17.1548 59.7094 16.2577C59.6897 15.3545 59.8855 14.4596 60.2804 13.6472ZM66.2913 14.5223C66.0993 14.3226 65.8689 14.1638 65.6141 14.0553C65.3592 13.9469 65.085 13.8909 64.808 13.8909C64.531 13.8909 64.2569 13.9469 64.002 14.0553C63.7472 14.1638 63.5168 14.3226 63.3248 14.5223C63.1133 14.7546 62.9502 15.0267 62.8451 15.3228C62.7401 15.6188 62.6951 15.9329 62.7129 16.2466C62.6788 16.8866 62.8987 17.5143 63.3248 17.9931C63.516 18.1942 63.7461 18.3542 64.0011 18.4636C64.256 18.573 64.5306 18.6294 64.808 18.6294C65.0855 18.6294 65.3601 18.573 65.615 18.4636C65.87 18.3542 66.1001 18.1942 66.2913 17.9931C66.6874 17.5014 66.9034 16.8891 66.9034 16.2577C66.9034 15.6263 66.6874 15.0139 66.2913 14.5223Z" fill="black"/>
<path d="M80.5014 12.4535C81.1713 13.1803 81.5063 14.179 81.5063 15.4497V21.0527H78.588V15.8613C78.6194 15.3207 78.44 14.789 78.0874 14.378C77.7258 14.0356 77.2467 13.8447 76.7487 13.8447C76.2507 13.8447 75.7717 14.0356 75.4101 14.378C75.0575 14.789 74.878 15.3207 74.9095 15.8613V21.0527H71.9727V11.4634H74.9095V12.7353C75.2176 12.3033 75.6312 11.9573 76.1109 11.7304C76.6425 11.4784 77.2247 11.3515 77.813 11.3596C78.3135 11.3366 78.8131 11.4225 79.2773 11.6114C79.7414 11.8002 80.1591 12.0875 80.5014 12.4535Z" fill="black"/>
<path d="M97.2174 8.99048V21.0531H94.2769V13.8185L91.581 21.0531H89.2078L86.4935 13.7999V21.0531H83.5566V8.99048H87.0275L90.413 17.3412L93.7503 8.99048H97.2174Z" fill="black"/>
<path d="M108.313 16.9623H101.668C101.678 17.474 101.883 17.9626 102.243 18.3269C102.58 18.6426 103.027 18.8131 103.489 18.8015C103.809 18.8244 104.128 18.747 104.401 18.5802C104.675 18.4134 104.89 18.1654 105.017 17.8708H108.146C107.985 18.5057 107.682 19.0958 107.259 19.5962C106.836 20.0967 106.305 20.4944 105.706 20.7594C105.041 21.0529 104.32 21.1996 103.593 21.1896C102.719 21.2056 101.855 20.9989 101.082 20.5888C100.357 20.192 99.7608 19.5947 99.3655 18.8683C98.9607 18.0576 98.75 17.1639 98.75 16.2577C98.75 15.3516 98.9607 14.4579 99.3655 13.6472C99.7536 12.9179 100.348 12.3194 101.075 11.9266C101.85 11.5366 102.706 11.3335 103.574 11.3335C104.442 11.3335 105.298 11.5366 106.073 11.9266C106.787 12.3063 107.376 12.8846 107.768 13.5916C108.186 14.3666 108.395 15.2367 108.376 16.1168C108.371 16.3996 108.35 16.6818 108.313 16.9623ZM105.347 15.3307C105.356 15.1041 105.315 14.8781 105.226 14.6696C105.137 14.461 105.002 14.2751 104.831 14.1256C104.471 13.8227 104.011 13.6641 103.541 13.6806C103.088 13.6674 102.646 13.8204 102.299 14.1107C101.944 14.4247 101.719 14.8597 101.668 15.3307H105.347Z" fill="black"/>
</svg>
