<svg width="35" height="35" viewBox="0 0 40 40" fill="none" xmlns="http://www.w3.org/2000/svg">
  <path
    d="M20.3906 28.2737H14.9495C14.5315 28.2737 14.1306 28.1076 13.835 27.8121C13.5394 27.5165 13.3734 27.1156 13.3734 26.6976C13.3734 26.2796 13.5394 25.8788 13.835 25.5832C14.1306 25.2876 14.5315 25.1216 14.9495 25.1216H20.3906C21.4668 25.1216 22.3436 24.4196 22.3436 23.5537C22.3212 23.2343 22.2031 22.9291 22.0048 22.6777C21.8066 22.4264 21.5372 22.2405 21.2319 22.1442L17.6318 20.7457C15.7197 20.0109 14.5097 18.301 14.5097 16.3972C14.5097 13.7941 16.7987 11.6771 19.6121 11.6771H23.4171C23.6241 11.6771 23.829 11.7179 24.0202 11.7971C24.2115 11.8763 24.3852 11.9924 24.5316 12.1388C24.6779 12.2851 24.794 12.4589 24.8732 12.6501C24.9524 12.8413 24.9932 13.0462 24.9932 13.2532C24.9932 13.4602 24.9524 13.6651 24.8732 13.8563C24.794 14.0476 24.6779 14.2213 24.5316 14.3677C24.3852 14.514 24.2115 14.6301 24.0202 14.7093C23.829 14.7885 23.6241 14.8293 23.4171 14.8293H19.6121C18.5359 14.8293 17.6618 15.534 17.6618 16.3972C17.6843 16.7165 17.8024 17.0217 18.0006 17.2731C18.1989 17.5245 18.4682 17.7104 18.7736 17.8066L22.3709 19.2052C24.2693 19.9427 25.4958 21.6635 25.4958 23.5537C25.4958 26.1568 23.2177 28.2737 20.3906 28.2737ZM40.0027 29.3663V10.6364C39.9962 7.81776 38.8729 5.11655 36.8787 3.12446C34.8846 1.13237 32.1822 0.0118087 29.3636 0.00820248H25.3373C24.9193 0.00820248 24.5185 0.174255 24.2229 0.469826C23.9273 0.765396 23.7613 1.16628 23.7613 1.58428C23.7613 2.00228 23.9273 2.40316 24.2229 2.69873C24.5185 2.9943 24.9193 3.16034 25.3373 3.16034H29.3636C31.3479 3.16251 33.2503 3.95173 34.6534 5.35484C36.0565 6.75795 36.8457 8.66035 36.8479 10.6446V29.369C36.8457 31.3533 36.0565 33.2557 34.6534 34.6588C33.2503 36.0619 31.3479 36.8512 29.3636 36.8533H10.6528C8.66876 36.8504 6.76678 36.061 5.36382 34.658C3.96087 33.2551 3.17142 31.3531 3.16853 29.369V10.6364C3.17142 8.65237 3.96087 6.75039 5.36382 5.34744C6.76678 3.94449 8.66876 3.15504 10.6528 3.15215H14.6681C15.0861 3.15215 15.487 2.9861 15.7826 2.69053C16.0781 2.39496 16.2442 1.99408 16.2442 1.57608C16.2442 1.15808 16.0781 0.757194 15.7826 0.461623C15.487 0.166052 15.0861 0 14.6681 0H10.6528C7.83036 -3.34019e-06 5.12325 1.12011 3.12593 3.11436C1.12861 5.10861 0.00434226 7.81397 0 10.6364V29.3608C0.00361915 32.1838 1.12756 34.8899 3.12496 36.8847C5.12236 38.8795 7.82989 40 10.6528 40H29.3636C32.1841 39.9964 34.8881 38.8743 36.8826 36.8799C38.877 34.8854 39.9991 32.1814 40.0027 29.3608V29.3663ZM11.9749 30.6774C11.2736 30.6767 10.6012 30.398 10.105 29.9024C9.60891 29.4067 9.3295 28.7346 9.32805 28.0333V26.7031H9.3144V28.0333C9.31512 28.7385 9.59574 29.4145 10.0946 29.9128C10.5935 30.4112 11.2697 30.6911 11.9749 30.6911H13.8869L11.9749 30.6774ZM6.16225 28.0333V26.7031H6.14859V28.0333C6.15004 29.5779 6.76443 31.0587 7.85683 32.1506C8.94924 33.2425 10.4303 33.8561 11.9749 33.8569C11.2104 33.8562 10.4535 33.7048 9.74754 33.4114C9.04158 33.118 8.40035 32.6884 7.86053 32.147C7.32071 31.6057 6.89287 30.9632 6.60147 30.2564C6.31006 29.5497 6.16081 28.7924 6.16225 28.0279V28.0333ZM30.6883 28.0333V21.4149H30.6747V28.0279C30.674 28.7289 30.3951 29.401 29.8994 29.8967C29.4037 30.3924 28.7316 30.6712 28.0306 30.672C28.7331 30.672 29.4071 30.3938 29.9051 29.8984C30.4031 29.4029 30.6847 28.7304 30.6883 28.0279V28.0333ZM33.8432 21.4204V28.0333C33.841 29.574 33.2279 31.0509 32.1382 32.1401C31.0485 33.2293 29.5713 33.8418 28.0306 33.8432C29.5758 33.8454 31.0588 33.2342 32.1538 32.1438C33.2487 31.0535 33.8662 29.5731 33.8705 28.0279V21.4149L33.8432 21.4204ZM28.0306 9.31714H11.9749C11.2695 9.31786 10.5932 9.5984 10.0944 10.0972C9.59565 10.596 9.31512 11.2722 9.3144 11.9776V18.7381H9.32805V11.9721C9.3295 11.2709 9.60891 10.5988 10.105 10.1031C10.6012 9.6075 11.2736 9.32878 11.9749 9.32806H28.0306C28.7316 9.32878 29.4037 9.60759 29.8994 10.1033C30.3951 10.599 30.674 11.2711 30.6747 11.9721V13.2532H30.6883V11.9721C30.6883 11.267 30.4084 10.5907 29.9101 10.0919C29.4117 9.59302 28.7357 9.31239 28.0306 9.31167V9.31714ZM28.0306 6.15133H11.9749C10.4301 6.15278 8.94899 6.76709 7.85667 7.85941C6.76434 8.95174 6.15004 10.4328 6.14859 11.9776V18.7381H6.16225V11.9721C6.1637 10.431 6.77656 8.95336 7.86632 7.8636C8.95609 6.77383 10.4337 6.16098 11.9749 6.15953H28.0306C29.5717 6.16098 31.0494 6.77383 32.1391 7.8636C33.2289 8.95336 33.8418 10.431 33.8432 11.9721V13.2532H33.8705V11.9721C33.8684 10.4252 33.2519 8.94247 32.1568 7.84991C31.0617 6.75735 29.5775 6.14441 28.0306 6.14586V6.15133ZM13.876 30.6856H11.9639C11.2588 30.6856 10.5825 30.4057 10.0837 29.9073C9.58481 29.409 9.30419 28.733 9.30347 28.0279V26.6976C9.30347 26.2796 9.13742 25.8788 8.84185 25.5832C8.54628 25.2876 8.1454 25.1216 7.72739 25.1216C7.30939 25.1216 6.90852 25.2876 6.61294 25.5832C6.31737 25.8788 6.15133 26.2796 6.15133 26.6976V28.0279C6.15349 29.5686 6.76668 31.0455 7.85636 32.1347C8.94605 33.2238 10.4233 33.8363 11.9639 33.8377H13.876C14.294 33.8377 14.6949 33.6717 14.9904 33.3761C15.286 33.0806 15.4521 32.6797 15.4521 32.2617C15.4521 31.8437 15.286 31.4428 14.9904 31.1472C14.6949 30.8517 14.294 30.6856 13.876 30.6856ZM32.2644 19.8416C31.8469 19.8416 31.4464 20.0073 31.1509 20.3022C30.8554 20.5972 30.6891 20.9974 30.6883 21.4149V28.0279C30.6883 28.7327 30.4083 29.4088 29.9099 29.9072C29.4115 30.4056 28.7355 30.6856 28.0306 30.6856H22.0213C21.6033 30.6856 21.2024 30.8517 20.9069 31.1472C20.6113 31.4428 20.4452 31.8437 20.4452 32.2617C20.4452 32.6797 20.6113 33.0806 20.9069 33.3761C21.2024 33.6717 21.6033 33.8377 22.0213 33.8377H28.0306C29.5713 33.8363 31.0485 33.2238 32.1382 32.1347C33.2279 31.0455 33.841 29.5686 33.8432 28.0279V21.4149C33.8428 21.2079 33.8017 21.0031 33.7222 20.812C33.6427 20.6209 33.5263 20.4474 33.3797 20.3013C33.2331 20.1552 33.0591 20.0394 32.8678 19.9605C32.6764 19.8816 32.4714 19.8412 32.2644 19.8416ZM28.0306 6.15953H11.9749C10.4337 6.16098 8.95609 6.77383 7.86632 7.8636C6.77656 8.95336 6.1637 10.431 6.16225 11.9721V18.7326C6.16225 19.1506 6.3283 19.5515 6.62387 19.847C6.91944 20.1426 7.32032 20.3087 7.73832 20.3087C8.15632 20.3087 8.5572 20.1426 8.85277 19.847C9.14834 19.5515 9.3144 19.1506 9.3144 18.7326V11.9721C9.31512 11.2668 9.59565 10.5905 10.0944 10.0917C10.5932 9.59293 11.2695 9.31239 11.9749 9.31167H28.0306C28.7357 9.31239 29.4117 9.59302 29.9101 10.0919C30.4084 10.5907 30.6883 11.267 30.6883 11.9721V13.2532C30.7053 13.6602 30.8789 14.0449 31.1728 14.3269C31.4668 14.6089 31.8584 14.7664 32.2658 14.7664C32.6731 14.7664 33.0647 14.6089 33.3587 14.3269C33.6527 14.0449 33.8263 13.6602 33.8432 13.2532V11.9721C33.8418 10.431 33.2289 8.95336 32.1391 7.8636C31.0494 6.77383 29.5717 6.16098 28.0306 6.15953Z"
    fill="#0041D7" />
</svg>