<svg width="158" height="33" viewBox="0 0 158 33" fill="none" xmlns="http://www.w3.org/2000/svg">
<path opacity="0.5" d="M10.0744 3.71094C5.98996 3.71094 2.66699 7.0339 2.66699 11.1183V22.9702C2.66699 27.0546 5.98996 30.3776 10.0744 30.3776H21.9263C26.0107 30.3776 29.3337 27.0546 29.3337 22.9702V11.1183C29.3337 7.0339 26.0107 3.71094 21.9263 3.71094H10.0744ZM23.7781 8.15538C24.3914 8.15538 24.8892 8.65316 24.8892 9.26649C24.8892 9.87983 24.3914 10.3776 23.7781 10.3776C23.1648 10.3776 22.667 9.87983 22.667 9.26649C22.667 8.65316 23.1648 8.15538 23.7781 8.15538ZM16.0003 9.63686C20.0848 9.63686 23.4077 12.9598 23.4077 17.0443C23.4077 21.1287 20.0848 24.4517 16.0003 24.4517C11.9159 24.4517 8.59292 21.1287 8.59292 17.0443C8.59292 12.9598 11.9159 9.63686 16.0003 9.63686ZM16.0003 11.8591C15.3194 11.8591 14.6451 11.9932 14.016 12.2538C13.3869 12.5144 12.8153 12.8963 12.3338 13.3778C11.8524 13.8593 11.4704 14.4309 11.2098 15.06C10.9493 15.6891 10.8151 16.3633 10.8151 17.0443C10.8151 17.7252 10.9493 18.3995 11.2098 19.0286C11.4704 19.6576 11.8524 20.2293 12.3338 20.7107C12.8153 21.1922 13.3869 21.5742 14.016 21.8348C14.6451 22.0953 15.3194 22.2295 16.0003 22.2295C16.6813 22.2295 17.3555 22.0953 17.9846 21.8348C18.6137 21.5742 19.1853 21.1922 19.6668 20.7107C20.1483 20.2293 20.5302 19.6576 20.7908 19.0286C21.0514 18.3995 21.1855 17.7252 21.1855 17.0443C21.1855 16.3633 21.0514 15.6891 20.7908 15.06C20.5302 14.4309 20.1483 13.8593 19.6668 13.3778C19.1853 12.8963 18.6137 12.5144 17.9846 12.2538C17.3555 11.9932 16.6813 11.8591 16.0003 11.8591Z" fill="#6B6C77"/>
<path opacity="0.5" d="M70.0003 3.46143H46.0003C45.6467 3.46143 45.3076 3.6019 45.0575 3.85195C44.8075 4.102 44.667 4.44114 44.667 4.79476V28.7948C44.667 29.1484 44.8075 29.4875 45.0575 29.7376C45.3076 29.9876 45.6467 30.1281 46.0003 30.1281H70.0003C70.3539 30.1281 70.6931 29.9876 70.9431 29.7376C71.1932 29.4875 71.3337 29.1484 71.3337 28.7948V4.79476C71.3337 4.44114 71.1932 4.102 70.9431 3.85195C70.6931 3.6019 70.3539 3.46143 70.0003 3.46143ZM65.6257 15.0948C65.4803 15.109 65.3344 15.1165 65.1883 15.1174C64.3973 15.1185 63.6184 14.9224 62.9221 14.5469C62.2258 14.1714 61.6341 13.6283 61.2003 12.9668V20.2908C61.2006 21.3618 60.8832 22.4088 60.2883 23.2995C59.6935 24.1901 58.8478 24.8843 57.8584 25.2943C56.8689 25.7043 55.7801 25.8117 54.7296 25.6028C53.6792 25.3939 52.7142 24.8782 51.9569 24.1208C51.1996 23.3635 50.6839 22.3986 50.475 21.3481C50.2661 20.2976 50.3734 19.2088 50.7834 18.2194C51.1934 17.2299 51.8876 16.3843 52.7783 15.7894C53.6689 15.1945 54.716 14.8772 55.787 14.8774C55.9003 14.8774 56.0097 14.8881 56.1217 14.8948V17.5614C55.7486 17.5162 55.3703 17.5478 55.0099 17.6542C54.6495 17.7606 54.3147 17.9396 54.026 18.1801C53.7373 18.4207 53.5009 18.7177 53.3312 19.053C53.1615 19.3883 53.0622 19.7547 53.0394 20.1298C53.0165 20.5049 53.0706 20.8807 53.1983 21.2341C53.326 21.5875 53.5246 21.911 53.782 22.1848C54.0393 22.4587 54.3499 22.677 54.6947 22.8263C55.0395 22.9757 55.4112 23.053 55.787 23.0534C56.5285 23.0668 57.2457 22.7887 57.7843 22.2788C58.3229 21.7689 58.6399 21.0679 58.667 20.3268L58.6937 7.88543H61.2457C61.3622 8.99403 61.8647 10.0264 62.6654 10.802C63.4661 11.5775 64.5139 12.0469 65.6257 12.1281V15.0948Z" fill="#6B6C77"/>
<path opacity="0.5" d="M113.334 16.7948C113.334 9.43476 107.36 3.46143 100 3.46143C92.6403 3.46143 86.667 9.43476 86.667 16.7948C86.667 23.2481 91.2537 28.6214 97.3337 29.8614V20.7948H94.667V16.7948H97.3337V13.4614C97.3337 10.8881 99.427 8.79476 102 8.79476H105.334V12.7948H102.667C101.934 12.7948 101.334 13.3948 101.334 14.1281V16.7948H105.334V20.7948H101.334V30.0614C108.067 29.3948 113.334 23.7148 113.334 16.7948Z" fill="#6B6C77"/>
<mask id="mask0_2751_5260" style="mask-type:alpha" maskUnits="userSpaceOnUse" x="126" y="0" width="32" height="33">
<rect x="126" y="0.794922" width="32" height="32" fill="#D9D9D9"/>
</mask>
<g mask="url(#mask0_2751_5260)">
<path opacity="0.5" d="M131.335 27.4622C130.601 27.4622 129.974 27.2011 129.451 26.6789C128.929 26.1567 128.668 25.5289 128.668 24.7956V8.79557C128.668 8.06224 128.929 7.43446 129.451 6.91224C129.974 6.39002 130.601 6.12891 131.335 6.12891H152.668C153.401 6.12891 154.029 6.39002 154.551 6.91224C155.074 7.43446 155.335 8.06224 155.335 8.79557V24.7956C155.335 25.5289 155.074 26.1567 154.551 26.6789C154.029 27.2011 153.401 27.4622 152.668 27.4622H131.335ZM142.001 18.1289L152.668 11.4622V8.79557L142.001 15.4622L131.335 8.79557V11.4622L142.001 18.1289Z" fill="#6B6C77"/>
</g>
</svg>
