<svg width="110" height="104" viewBox="0 0 110 104" fill="none" xmlns="http://www.w3.org/2000/svg">
<path d="M105.716 15.3401C105.759 12.9207 105.451 10.2809 104.261 8.16156C102.149 4.41915 96.3643 4.71161 92.8887 5.81216C90.7541 6.48787 89.5774 7.90514 88.5496 9.93227C86.6188 13.744 84.8231 19.2634 85.5002 23.5602C85.8599 25.8354 86.2452 27.4585 87.8039 29.0595C88.8975 30.1829 90.9572 30.1364 92.4022 30.099C94.7433 30.0394 97.0885 29.9181 99.4234 29.7227C103.966 29.3429 105.052 23.152 105.441 19.3735C105.564 18.1753 105.691 16.7809 105.716 15.3401Z" fill="url(#paint0_linear_550_11670)"/>
<path d="M98.8715 32.431C97.0183 29.9014 95.0598 27.0794 94.3875 23.985C94.1685 22.978 94.8221 20.131 93.786 20.104C92.2682 20.0631 90.0054 20.0437 88.6117 20.2121C86.8327 20.4269 85.5402 20.4941 84.2109 21.8151C82.5733 23.443 81.9932 25.8638 81.9613 28.1072C81.935 30.0969 81.7236 32.5094 83.2878 33.9439C84.6788 35.2184 88.2084 34.9142 89.907 34.831C92.8178 34.6924 96.3225 34.6987 99.3324 34.3778C100.659 34.2357 99.419 33.1788 98.8715 32.431Z" fill="url(#paint1_linear_550_11670)"/>
<path d="M97.3935 0.0383251C96.0005 0.0099105 76.5102 1.24283 72.5231 1.51588C64.5483 2.062 40.8963 3.66431 37.0395 3.87845C33.5501 4.0732 29.8388 3.67886 26.5178 4.98732C24.422 5.81342 22.2688 7.99026 20.7566 9.58771C17.6116 12.9081 15.6378 17.5708 14.8179 22.0804C13.6099 28.7197 14.3376 35.5351 14.4104 42.2832C14.5989 59.8718 10.2071 77.4896 1.78393 92.9319C0.328548 95.5952 -1.08733 99.3078 1.21841 101.279C2.36123 102.255 4.00096 102.318 5.50416 102.334L51.2891 102.788C56.6054 102.841 66.5858 103.844 68.3566 102.183C72.1724 98.6016 74.289 93.3664 76.375 88.7418C80.6136 79.3448 81.7627 68.8619 82.1598 58.5613C82.5569 48.2607 83.0795 3.38362 97.3935 0.0383251Z" fill="url(#paint2_radial_550_11670)"/>
<path d="M97.3935 0.0383251C96.0005 0.0099105 76.5102 1.24283 72.5231 1.51588C64.5483 2.062 40.8963 3.66431 37.0395 3.87845C33.5501 4.0732 29.8388 3.67886 26.5178 4.98732C24.422 5.81342 22.2688 7.99026 20.7566 9.58771C17.6116 12.9081 15.6378 17.5708 14.8179 22.0804C13.6099 28.7197 14.3376 35.5351 14.4104 42.2832C14.5989 59.8718 10.2071 77.4896 1.78393 92.9319C0.328548 95.5952 -1.08733 99.3078 1.21841 101.279C2.36123 102.255 4.00096 102.318 5.50416 102.334L51.2891 102.788C56.6054 102.841 66.5858 103.844 68.3566 102.183C72.1724 98.6016 74.289 93.3664 76.375 88.7418C80.6136 79.3448 81.7627 68.8619 82.1598 58.5613C82.5569 48.2607 83.0795 3.38362 97.3935 0.0383251Z" fill="url(#paint3_linear_550_11670)"/>
<path d="M96.6941 0.148576C97.9832 -0.0115158 99.3395 0.00996859 100.482 0.263621C104.221 1.09527 107.154 3.97623 108.582 7.46014C110.636 12.4701 110.229 18.6181 108.815 23.7514C107.822 27.3552 106.106 31.4136 102.721 33.3743C100.351 34.7465 97.3428 34.77 95.0329 33.1511C92.6198 31.4594 91.3189 28.6463 91.0188 25.7772C90.8303 23.9711 90.9454 20.4602 93.2761 20.1379C96.5888 19.6805 95.9325 23.7417 96.2769 25.7224C96.6137 27.6525 98.2521 29.7476 100.308 28.4537C102.365 27.1598 103.207 24.4049 103.823 22.1893C104.72 18.9674 105.002 15.0704 104.438 11.7729C103.909 8.66395 101.658 5.50923 98.2174 5.53557C93.8658 5.59171 90.8608 9.58084 89.3043 13.2207C86.2355 20.3992 86.503 28.8258 86.1752 36.459C85.6034 49.7736 85.2382 63.5076 81.7681 76.4425C80.0827 82.7256 77.6792 88.8791 74.3013 94.4455C73.1377 96.3682 71.8511 98.2137 70.4494 99.9704C69.4029 101.278 67.9982 103.158 66.0958 102.271C64.4429 101.502 64.043 99.1797 65.2232 97.8297C66.9901 95.8016 68.5745 93.6217 69.9581 91.3151C73.0469 86.2018 75.2397 80.5037 76.7699 74.7514C78.7458 67.3311 79.6523 59.5912 80.1742 51.9678C80.7508 43.5557 80.9476 35.1269 81.597 26.7211C81.888 22.9558 82.0724 19.2633 82.983 15.611C84.4807 9.61895 87.9951 2.96647 94.2027 0.720333C95.0097 0.439226 95.8452 0.247494 96.6941 0.148576Z" fill="url(#paint4_linear_550_11670)"/>
<path opacity="0.2" d="M48.6897 20.2148C46.8097 20.1146 44.9269 20.3464 43.1274 20.8996C33.3902 23.8429 27.2512 34.3002 31.0207 44.0699C37.7362 61.4735 64.6621 52.2055 63.1915 34.9613C62.4902 26.7343 56.2965 20.6452 48.6897 20.2148Z" fill="#12314F"/>
<path d="M57.1978 47.4041C63.8447 40.7572 64.4399 30.5758 58.5273 24.6632C52.6147 18.7506 42.4333 19.3459 35.7864 25.9927C29.1396 32.6396 28.5443 42.821 34.4569 48.7336C40.3695 54.6462 50.5509 54.051 57.1978 47.4041Z" fill="#0036B3"/>
<path opacity="0.18" d="M35.1843 32.6424C34.9195 33.1476 34.5765 33.5815 34.0955 33.4893C33.7337 33.42 33.5265 33.0291 33.4641 32.666C33.3131 31.7893 33.6998 30.9105 34.1683 30.1551C35.1385 28.5881 36.5045 27.1307 38.1068 26.2048C38.3611 26.0578 38.6384 25.9276 38.9315 25.9276C39.2247 25.9276 39.5372 26.0717 39.6495 26.3434C39.9836 27.1535 38.2239 28.3899 37.7312 28.8757C36.9468 29.6479 36.2707 30.5229 35.7214 31.4767C35.5765 31.7276 35.4088 32.2113 35.1843 32.6424Z" fill="white"/>
<path d="M63.5738 62.4161H63.5129L24.9272 62.2449C23.1475 62.2567 21.5036 63.7086 21.2368 65.4862C20.9727 67.2327 22.1551 68.6347 23.9105 68.659H23.9369C23.9591 68.659 63.0645 68.6146 63.0665 68.6146C64.8684 68.5897 66.4396 67.1897 66.5498 65.4842C66.6586 63.798 65.3217 62.4396 63.5738 62.4161Z" fill="#F2F7FC"/>
<path d="M28.8805 83.2336C27.0598 83.1733 25.9004 81.8156 26.2559 80.0851C26.6212 78.331 28.3849 76.9075 30.2187 76.9082C37.2697 76.9304 44.3195 76.9535 51.3682 76.9775C53.2027 76.9727 54.4869 78.3636 54.2249 80.074C53.9629 81.7845 52.2255 83.1761 50.3661 83.1886C50.3668 83.1927 28.9068 83.2343 28.8805 83.2336Z" fill="#F2F7FC"/>
<path d="M53.2435 30.6417C52.7255 30.6149 52.2181 30.7946 51.8324 31.1414C49.0603 33.6229 46.2075 36.1213 43.2741 38.6366C42.0483 37.1248 40.824 35.6075 39.601 34.0847C39.4288 33.8644 39.2134 33.6816 38.9681 33.5475C38.7227 33.4135 38.4526 33.3309 38.1742 33.3049C37.8958 33.279 37.6151 33.3102 37.3492 33.3966C37.0832 33.483 36.8378 33.6228 36.6279 33.8075C35.7269 34.5872 35.5883 35.9788 36.3271 36.9088C37.9779 38.9949 39.6308 41.0703 41.2858 43.1351C41.461 43.3544 41.6792 43.5355 41.9269 43.6673C42.1747 43.7991 42.4469 43.8789 42.7266 43.9016L42.8001 43.9065C43.3505 43.9302 43.8895 43.7453 44.3095 43.3888C47.8671 40.3948 51.3092 37.4252 54.6358 34.4797C55.5062 33.7112 55.5679 32.3438 54.7875 31.4214C54.5976 31.1923 54.3624 31.0048 54.0967 30.8707C53.8311 30.7365 53.5406 30.6586 53.2435 30.6417Z" fill="white"/>
<defs>
<linearGradient id="paint0_linear_550_11670" x1="87.562" y1="12.6095" x2="107.774" y2="26.2111" gradientUnits="userSpaceOnUse">
<stop offset="0.06" stop-color="#729EB1"/>
<stop offset="0.45" stop-color="#91B0BB"/>
<stop offset="0.84" stop-color="#ABC0C3"/>
</linearGradient>
<linearGradient id="paint1_linear_550_11670" x1="97.466" y1="28.7455" x2="76.7462" y2="25.3135" gradientUnits="userSpaceOnUse">
<stop stop-color="#BED8D9"/>
<stop offset="0.18" stop-color="#AECCD1"/>
<stop offset="0.72" stop-color="#83ABBA"/>
<stop offset="1" stop-color="#729EB1"/>
</linearGradient>
<radialGradient id="paint2_radial_550_11670" cx="0" cy="0" r="1" gradientUnits="userSpaceOnUse" gradientTransform="translate(-168.304 14.7654) scale(281.059 281.059)">
<stop offset="0.63" stop-color="#C1DADB"/>
<stop offset="0.65" stop-color="#D7E7E9"/>
<stop offset="0.67" stop-color="#E7F1F3"/>
<stop offset="0.7" stop-color="#F0F6F9"/>
<stop offset="0.74" stop-color="#F3F8FB"/>
<stop offset="0.82" stop-color="#F3F8FB"/>
<stop offset="0.85" stop-color="#EAF3F5"/>
<stop offset="0.89" stop-color="#D2E4E6"/>
<stop offset="0.92" stop-color="#BED8D9"/>
<stop offset="0.95" stop-color="#B9D2D3"/>
<stop offset="0.99" stop-color="#ABC1C4"/>
<stop offset="1" stop-color="#A6BBBE"/>
</radialGradient>
<linearGradient id="paint3_linear_550_11670" x1="48.8066" y1="-7.9635" x2="48.5911" y2="106.16" gradientUnits="userSpaceOnUse">
<stop stop-color="#BED8D9"/>
<stop offset="0.21" stop-color="#F3F8FB"/>
<stop offset="0.72" stop-color="#BED8D9"/>
<stop offset="0.9" stop-color="#BED8D9"/>
<stop offset="0.99" stop-color="#A6BBBE"/>
</linearGradient>
<linearGradient id="paint4_linear_550_11670" x1="105.217" y1="-16.2487" x2="64.8192" y2="139.571" gradientUnits="userSpaceOnUse">
<stop stop-color="#E3ECF1"/>
<stop offset="0.05" stop-color="#D5E4E8"/>
<stop offset="0.12" stop-color="#C8DDDF"/>
<stop offset="0.21" stop-color="#C0D9DA"/>
<stop offset="0.39" stop-color="#BED8D9"/>
<stop offset="0.72" stop-color="#BED8D9"/>
<stop offset="0.78" stop-color="#BED8D9"/>
</linearGradient>
</defs>
</svg>
