<svg width="40" height="41" viewBox="0 0 40 41" fill="none" xmlns="http://www.w3.org/2000/svg">
<rect y="0.794922" width="40" height="40" rx="8" fill="white"/>
<mask id="mask0_2684_5417" style="mask-type:alpha" maskUnits="userSpaceOnUse" x="6" y="6" width="28" height="29">
<rect x="6" y="6.79492" width="28" height="28" fill="#D9D9D9"/>
</mask>
<g mask="url(#mask0_2684_5417)">
<path d="M18.6734 22.122H12.9238C12.5514 22.122 12.2371 21.9939 11.9808 21.7379C11.7247 21.4816 11.5967 21.1673 11.5967 20.7949C11.5967 20.4225 11.7247 20.1082 11.9808 19.8519C12.2371 19.5959 12.5514 19.4678 12.9238 19.4678H18.6734V13.7182C18.6734 13.3458 18.8014 13.0315 19.0575 12.7752C19.3138 12.5192 19.6281 12.3911 20.0005 12.3911C20.3728 12.3911 20.6872 12.5192 20.9434 12.7752C21.1995 13.0315 21.3276 13.3458 21.3276 13.7182V19.4678H27.0772C27.4495 19.4678 27.7639 19.5959 28.0201 19.8519C28.2762 20.1082 28.4043 20.4225 28.4043 20.7949C28.4043 21.1673 28.2762 21.4816 28.0201 21.7379C27.7639 21.9939 27.4495 22.122 27.0772 22.122H21.3276V27.8716C21.3276 28.244 21.1995 28.5583 20.9434 28.8146C20.6872 29.0707 20.3728 29.1987 20.0005 29.1987C19.6281 29.1987 19.3138 29.0707 19.0575 28.8146C18.8014 28.5583 18.6734 28.244 18.6734 27.8716V22.122Z" fill="#0041D7"/>
</g>
</svg>
