<svg width="70" height="71" viewBox="0 0 70 71" fill="none" xmlns="http://www.w3.org/2000/svg">
<rect y="0.280029" width="70" height="70" rx="14" fill="#F2F7FC"/>
<path d="M50.2369 31.0607C49.7484 31.0607 49.2798 30.8667 48.9344 30.5212C48.5889 30.1757 48.3948 29.7072 48.3948 29.2186V23.0783C48.3948 22.9154 48.3301 22.7592 48.215 22.6441C48.0998 22.5289 47.9436 22.4642 47.7808 22.4642H41.6404C41.1519 22.4642 40.6833 22.2702 40.3379 21.9247C39.9924 21.5792 39.7983 21.1107 39.7983 20.6221C39.7983 20.1336 39.9924 19.665 40.3379 19.3196C40.6833 18.9741 41.1519 18.78 41.6404 18.78H47.7808C48.3452 18.78 48.9042 18.8912 49.4257 19.1072C49.9471 19.3232 50.421 19.6398 50.8201 20.039C51.2192 20.4381 51.5358 20.9119 51.7519 21.4334C51.9679 21.9549 52.079 22.5138 52.079 23.0783V29.2186C52.079 29.7072 51.885 30.1757 51.5395 30.5212C51.194 30.8667 50.7255 31.0607 50.2369 31.0607ZM20.7632 31.0607C20.2747 31.0607 19.8061 30.8667 19.4607 30.5212C19.1152 30.1757 18.9211 29.7072 18.9211 29.2186V23.0783C18.9211 21.9383 19.374 20.845 20.1801 20.039C20.9861 19.2329 22.0794 18.78 23.2194 18.78H29.3597C29.8483 18.78 30.3168 18.9741 30.6623 19.3196C31.0078 19.665 31.2018 20.1336 31.2018 20.6221C31.2018 21.1107 31.0078 21.5792 30.6623 21.9247C30.3168 22.2702 29.8483 22.4642 29.3597 22.4642H23.2194C23.0565 22.4642 22.9004 22.5289 22.7852 22.6441C22.67 22.7592 22.6054 22.9154 22.6054 23.0783V29.2186C22.6054 29.7072 22.4113 30.1757 22.0658 30.5212C21.7204 30.8667 21.2518 31.0607 20.7632 31.0607ZM29.3597 51.9379H23.2194C22.6549 51.9379 22.096 51.8267 21.5745 51.6107C21.053 51.3947 20.5792 51.0781 20.1801 50.679C19.7809 50.2799 19.4643 49.806 19.2483 49.2845C19.0323 48.7631 18.9211 48.2041 18.9211 47.6397V41.4993C18.9211 41.0108 19.1152 40.5422 19.4607 40.1968C19.8061 39.8513 20.2747 39.6572 20.7632 39.6572C21.2518 39.6572 21.7204 39.8513 22.0658 40.1968C22.4113 40.5422 22.6054 41.0108 22.6054 41.4993V47.6397C22.6054 47.8025 22.67 47.9587 22.7852 48.0739C22.9004 48.189 23.0565 48.2537 23.2194 48.2537H29.3597C29.8483 48.2537 30.3168 48.4478 30.6623 48.7933C31.0078 49.1387 31.2018 49.6073 31.2018 50.0958C31.2018 50.5844 31.0078 51.0529 30.6623 51.3984C30.3168 51.7438 29.8483 51.9379 29.3597 51.9379ZM47.7808 51.9379H41.6404C41.1519 51.9379 40.6833 51.7438 40.3379 51.3984C39.9924 51.0529 39.7983 50.5844 39.7983 50.0958C39.7983 49.6073 39.9924 49.1387 40.3379 48.7933C40.6833 48.4478 41.1519 48.2537 41.6404 48.2537H47.7808C47.9436 48.2537 48.0998 48.189 48.215 48.0739C48.3301 47.9587 48.3948 47.8025 48.3948 47.6397V41.4993C48.3948 41.0108 48.5889 40.5422 48.9344 40.1968C49.2798 39.8513 49.7484 39.6572 50.2369 39.6572C50.7255 39.6572 51.194 39.8513 51.5395 40.1968C51.885 40.5422 52.079 41.0108 52.079 41.4993V47.6397C52.079 48.2041 51.9679 48.7631 51.7519 49.2845C51.5358 49.806 51.2192 50.2799 50.8201 50.679C50.421 51.0781 49.9471 51.3947 49.4257 51.6107C48.9042 51.8267 48.3452 51.9379 47.7808 51.9379Z" fill="#0041D7"/>
<path d="M51.1897 37.2012H19.8103C19.3302 37.2012 18.8697 37.0071 18.5302 36.6616C18.1907 36.3162 18 35.8476 18 35.3591C18 34.8705 18.1907 34.402 18.5302 34.0565C18.8697 33.711 19.3302 33.517 19.8103 33.517H51.1897C51.6698 33.517 52.1303 33.711 52.4698 34.0565C52.8093 34.402 53 34.8705 53 35.3591C53 35.8476 52.8093 36.3162 52.4698 36.6616C52.1303 37.0071 51.6698 37.2012 51.1897 37.2012Z" fill="#0036B3" stroke="#0036B3"/>
</svg>
